<!DOCTYPE svg PUBLIC "-//W3C//DTD SVG 1.1//EN" "http://www.w3.org/Graphics/SVG/1.1/DTD/svg11.dtd">
<!-- Uploaded to: SVG Repo, www.svgrepo.com, Transformed by: SVG Repo Mixer Tools -->
<svg height="800px" width="800px" version="1.1" id="Layer_1" xmlns="http://www.w3.org/2000/svg" xmlns:xlink="http://www.w3.org/1999/xlink" viewBox="0 0 512 512" xml:space="preserve" fill="#000000">
<g id="SVGRepo_bgCarrier" stroke-width="0"/>
<g id="SVGRepo_tracerCarrier" stroke-linecap="round" stroke-linejoin="round"/>
<g id="SVGRepo_iconCarrier"> <circle style="fill:#2e8555;" cx="256" cy="256" r="256"/> <path style="fill:#FAD24D;" d="M45.986,144.06h420.022c12.052,0,21.91,9.858,21.91,21.91v261.754H24.072V165.97 C24.072,153.917,33.93,144.06,45.986,144.06z"/> <path style="fill:#EDB937;" d="M177.274,105.405H441.34c12.052,0,21.915,9.858,21.915,21.915v16.739H48.75V127.32V91.068 c0-3.735,3.057-6.797,6.797-6.797h114.936c3.74,0,6.797,3.062,6.797,6.797v14.337H177.274z"/> <path style="fill:#FEFEFE;" d="M78.404,125.334h380.453c8.033,0,14.611,6.573,14.611,14.611v5.431 c-2.331-0.853-4.844-1.317-7.459-1.317H63.792v-4.114C63.792,131.907,70.367,125.334,78.404,125.334z"/> <path style="fill:#EDB937;" d="M487.924,418.008v9.716H24.076v-9.716H487.924z"/> <path style="fill:#FFFFFF;" d="M300.2,295.963l5.233-19.939l-11.839-4.645c0.398-4.469,0.374-8.971-0.071-13.441l11.792-4.768 l-5.441-19.886l-12.559,1.895c-1.867-4.033-4.133-7.92-6.797-11.611l7.825-10.019l-14.654-14.503l-9.939,7.93 c-3.721-2.621-7.631-4.849-11.678-6.673l1.763-12.583l-19.939-5.233l-4.645,11.839c-4.469-0.398-8.971-0.379-13.441,0.071 l-4.768-11.792l-20.098,5.44l1.681,12.56v0.019c-3.992,1.867-7.704,4.133-11.396,6.797l-9.912-7.83l-14.449,14.654l7.956,9.939 c-2.621,3.721-4.835,7.63-6.66,11.678l-12.576-1.768l-5.229,19.939l11.841,4.645c-0.398,4.469-0.373,8.971,0.072,13.441 l-11.791,4.768l5.441,19.882l12.559-1.895c1.867,4.028,4.133,7.915,6.797,11.607l-7.825,10.019l14.654,14.503l9.939-7.93 c3.716,2.621,7.63,4.849,11.678,6.673l-1.763,12.583l19.939,5.233l4.645-11.839c4.469,0.398,8.971,0.374,13.441-0.071l4.768,11.792 l19.882-5.44l-1.895-12.559c4.028-1.867,7.92-4.133,11.611-6.797l10.019,7.825l14.503-14.654l-7.93-9.939 c2.621-3.716,4.849-7.63,6.673-11.678L300.2,295.963z M245.991,287.878c-12.626,12.754-33.2,12.863-45.953,0.237 c-12.754-12.621-12.863-33.195-0.237-45.953c12.625-12.754,33.199-12.863,45.953-0.237 C258.507,254.55,258.616,275.124,245.991,287.878z"/> <path style="fill:#ECF0F1;" d="M222.895,223.056c-23.171,0-41.958,18.782-41.958,41.958c0,23.171,18.782,41.958,41.958,41.958 c23.171,0,41.958-18.782,41.958-41.958C264.854,241.844,246.071,223.056,222.895,223.056z M245.991,287.878 c-12.626,12.754-33.2,12.863-45.953,0.237c-12.754-12.625-12.858-33.2-0.237-45.953c12.625-12.754,33.199-12.863,45.953-0.237 C258.507,254.55,258.616,275.124,245.991,287.878z"/> <path style="fill:#FFFFFF;" d="M364.571,342.737c0.128-2.355,0.01-4.74-0.369-7.119l6.816-3.881l-7.744-16.1l-7.347,2.635 c-1.607-1.792-3.388-3.384-5.299-4.768l2.076-7.564l-16.858-5.91l-3.332,7.057c-2.358-0.128-4.741-0.009-7.114,0.369l-3.881-6.815 l-16.1,7.744l2.635,7.342c-1.792,1.607-3.384,3.388-4.768,5.299l-7.564-2.076l-5.91,16.863l7.057,3.332 c-0.128,2.355-0.009,4.74,0.369,7.114l-6.816,3.886l7.744,16.1l7.342-2.635c1.607,1.792,3.384,3.388,5.294,4.773l-2.071,7.564 l16.863,5.91l3.332-7.062c2.355,0.128,4.744,0.01,7.118-0.369l3.881,6.816l16.1-7.744l-2.635-7.342 c1.792-1.607,3.384-3.384,4.768-5.299l7.564,2.076l5.91-16.863L364.571,342.737z M343.342,353.438 c-6.901,6.971-18.009,7.033-24.98,0.128c-6.971-6.901-6.97-18.152,0.016-25.124v0.005c6.986-6.971,18.009-7.033,24.98-0.133 S350.248,346.466,343.342,353.438z"/> <path style="fill:#ECF0F1;" d="M330.717,315.637c-13.977,0-25.309,11.327-25.309,25.304c0,13.972,11.332,25.304,25.309,25.304 c13.972,0,25.304-11.327,25.304-25.304C356.021,326.963,344.694,315.637,330.717,315.637z M343.342,353.438 c-6.901,6.971-18.006,7.033-24.978,0.128c-6.976-6.901-6.973-18.152,0.013-25.124v0.005c6.986-6.976,18.006-7.033,24.982-0.133 C350.333,335.214,350.248,346.466,343.342,353.438z"/> </g>
</svg>